<?xml version="1.0" encoding="utf-8"?>
<!-- Generator: Adobe Illustrator 24.1.0, SVG Export Plug-In . SVG Version: 6.00 Build 0)  -->
<svg version="1.1" id="Layer_1" xmlns="http://www.w3.org/2000/svg" xmlns:xlink="http://www.w3.org/1999/xlink" x="0px" y="0px"
	 viewBox="0 0 2509.28 1029.45" style="enable-background:new 0 0 2509.28 1029.45;" xml:space="preserve">
<style type="text/css">
	.st0{fill:#FFFFFF;}
	.st1{fill:#9A48C1;}
	.st2{fill:#7B3CA0;}
	.st3{fill:#7B3994;}
	.st4{fill:#7D44A5;}
	.st5{fill:#954FD3;}
</style>
<g>
	<g>
		<path class="st0" d="M1258.44,397.05c-55.19,0-96.42-11.11-123.66-33.32c-27.26-22.21-40.87-57.45-40.87-105.7V37.78h98.41v215.04
			c0,24.65,4.86,42.87,14.58,54.67c9.71,11.8,25.33,17.7,46.86,17.7c19.09,0,34.1-5.9,45.04-17.7c10.93-11.8,16.4-30.02,16.4-54.67
			V37.78h89.56v220.25c0,32.28-6.25,58.67-18.74,79.14c-12.5,20.49-29.77,35.59-51.81,45.3
			C1312.15,392.19,1286.9,397.05,1258.44,397.05z"/>
		<path class="st0" d="M408.7,385.08V37.78h242.12v71.85H503.46v65.61h127.05v71.85H502.94v66.13h147.87v71.85H408.7z"/>
		<path class="st0" d="M718.49,385.08V37.78h145.79c60.05,0,104.05,14.76,131.99,44.26c27.94,29.51,41.91,72.72,41.91,129.65
			c0,56.58-13.98,99.63-41.91,129.13c-27.95,29.51-71.94,44.26-131.99,44.26H718.49z M812.74,313.22h40.09
			c28.46,0,50.33-8.07,65.61-24.21c15.27-16.14,22.91-41.92,22.91-77.32c0-35.75-7.64-61.7-22.91-77.84
			c-15.28-16.14-37.15-24.21-65.61-24.21h-40.09V313.22z"/>
		<path class="st1" d="M167.2,704.76c9.75,15.65,22.62,27.51,38.61,35.58c15.98,8.08,33.56,12.11,52.74,12.11
			c16.82,0,31.62-2.18,44.41-6.56c12.78-4.37,24.22-10.09,34.32-17.16c10.09-7.07,19-14.64,26.75-22.71v91.85
			c-14.13,11.1-29.61,19.86-46.43,26.24c-16.83,6.39-38.19,9.59-64.1,9.59c-28.26,0-54.34-4.38-78.23-13.12
			c-23.89-8.75-44.41-21.36-61.57-37.85c-17.16-16.48-30.45-36-39.87-58.54c-9.42-22.54-14.13-47.61-14.13-75.2
			c0-27.58,4.71-52.65,14.13-75.2c9.42-22.54,22.71-42.06,39.87-58.54c17.16-16.48,37.68-29.1,61.57-37.85
			c23.89-8.75,49.96-13.12,78.23-13.12c25.9,0,47.27,3.2,64.1,9.59c16.82,6.4,32.3,15.14,46.43,26.24v91.85
			c-7.74-8.07-16.65-15.72-26.75-22.96c-10.09-7.23-21.54-12.95-34.32-17.16c-12.79-4.2-27.59-6.31-44.41-6.31
			c-19.18,0-36.76,4.04-52.74,12.11c-15.98,8.07-28.85,19.86-38.61,35.33c-9.76,15.48-14.64,34.15-14.64,56.02
			C152.56,670.52,157.44,689.11,167.2,704.76z"/>
		<path class="st1" d="M1122.05,472.34h99.93l-186.23,375.49L850.02,472.34h99.42l86.3,210.96L1122.05,472.34z"/>
		<path class="st1" d="M1345.62,472.34v353.28h-86.81V472.34H1345.62z"/>
		<path class="st1" d="M1508.13,472.34v353.28h-87.82V472.34H1508.13z M1476.84,825.63v-75.7h66.62c13.45,0,26.5-1.68,39.11-5.05
			c12.62-3.36,23.72-8.91,33.31-16.65c9.59-7.74,17.24-18.08,22.96-31.04c5.72-12.95,8.58-29.02,8.58-48.2s-2.86-35.24-8.58-48.2
			c-5.72-12.95-13.37-23.29-22.96-31.04c-9.59-7.74-20.69-13.29-33.31-16.65c-12.62-3.36-25.66-5.05-39.11-5.05h-66.62v-75.7h69.65
			c38.69,0,72.17,7.24,100.43,21.7c28.26,14.47,50.13,34.82,65.61,61.07c15.47,26.24,23.22,57.54,23.22,93.87
			c0,36.01-7.75,67.21-23.22,93.62c-15.48,26.42-37.35,46.86-65.61,61.32c-28.26,14.47-61.74,21.7-100.43,21.7H1476.84z"/>
		<path class="st1" d="M1779.73,642.35h107v66.11h-107V642.35z"/>
		<path class="st2" d="M1899.25,500.1l169.57-34.32v359.85h-82.26V552.59l-87.31,21.7V500.1z"/>
		<path class="st2" d="M2183.38,824.12l114.56-127.69l17.16-7.57c-9.42,9.08-18.42,15.06-27,17.92c-8.58,2.86-19.26,4.29-32.05,4.29
			c-13.12,0-26.17-2.6-39.11-7.82c-12.96-5.21-24.65-12.78-35.08-22.71c-10.43-9.92-18.85-21.95-25.23-36.08
			c-6.4-14.13-9.59-30.11-9.59-47.95c0-29.27,6.47-53.66,19.43-73.18c12.95-19.51,30.28-34.23,51.98-44.16
			c21.7-9.92,45.84-14.89,72.42-14.89c26.24,0,50.22,4.97,71.92,14.89c21.7,9.93,39.03,24.65,51.98,44.16
			c12.95,19.52,19.43,43.91,19.43,73.18c0,18.85-3.96,36.34-11.86,52.49c-7.91,16.15-17.59,31.29-29.02,45.42l-101.95,129.71
			H2183.38z M2342.11,564.96c-5.22-8.91-12.29-15.81-21.2-20.69c-8.92-4.87-18.93-7.32-30.03-7.32c-11.44,0-21.62,2.44-30.53,7.32
			c-8.92,4.88-15.98,11.78-21.2,20.69c-5.22,8.92-7.82,19.43-7.82,31.54c0,11.78,2.6,22.21,7.82,31.29
			c5.21,9.08,12.28,16.15,21.2,21.2c8.91,5.05,19.09,7.57,30.53,7.57c11.1,0,21.11-2.52,30.03-7.57c8.91-5.05,15.98-12.11,21.2-21.2
			c5.21-9.09,7.82-19.51,7.82-31.29C2349.93,584.39,2347.32,573.87,2342.11,564.96z"/>
		<g>
			<path class="st3" d="M670.38,397.05c0,0,14.42,18.46,5.81,49.26c-8.61,30.8-32,71.15-32,71.15l25.79,5.61l26.19-120.41"/>
			<path class="st3" d="M721.97,408.27c0,0-20.78,10.81-25.75,42.4s-0.44,78.02-0.44,78.02l-25.79-5.61l26.19-120.41"/>
			<circle class="st4" cx="699.93" cy="385.39" r="38.18"/>
		</g>
		<path class="st0" d="M151.49,275.21v109.86H57.24V37.78h163.49c40.61,0,72.81,9.2,96.59,27.6c23.77,18.4,35.67,47.38,35.67,86.95
			c0,39.23-11.89,69.51-35.67,90.86c-23.78,21.35-55.97,32.02-96.59,32.02H151.49z M151.49,203.36h57.27
			c6.59,0,12.58-0.95,17.96-2.86c5.38-1.9,9.8-4.86,13.28-8.85c3.47-3.99,6.16-8.76,8.07-14.32c1.9-5.55,2.86-11.8,2.86-18.74
			c0-7.98-0.96-14.92-2.86-20.83c-1.91-5.9-4.6-11.02-8.07-15.36c-3.47-4.34-7.9-7.55-13.28-9.63c-5.39-2.08-11.37-3.12-17.96-3.12
			h-57.27V203.36z"/>
		<path class="st0" d="M1475.55,385.08V37.78h94.76V312.7h144.75v72.37H1475.55z"/>
		<path class="st0" d="M1767.65,385.08V37.78h94.76v347.29H1767.65z"/>
		<g>
			<path class="st4" d="M500.68,416.6c0,0,27.43,6.13,42.92,41.22s24.56,90.32,24.56,90.32l28.18-14.46l-67.48-131.54"/>
			<path class="st4" d="M557.03,387.69c0,0-11.02,25.85,8.45,58.91c19.47,33.05,59.04,72.63,59.04,72.63l-28.18,14.46l-67.48-131.54
				"/>
			<circle class="st5" cx="519.17" cy="383.27" r="45.81"/>
		</g>
		<g>
			<path class="st4" d="M326.9,687c0,0,19.43-23.68,61.19-21.52s99.94,20.46,99.94,20.46l-0.23-34.51l-161.13,1.06"/>
			<path class="st4" d="M326.45,617.97c0,0,19.74,23.42,61.46,20.71s99.66-21.77,99.66-21.77l0.23,34.51l-161.13,1.06"/>
			<circle class="st5" cx="303.56" cy="652.64" r="49.93"/>
		</g>
		<g>
			<path class="st4" d="M814.8,426.04c0,0,3.32,29.85-26.78,57.68c-30.1,27.83-82.77,56.15-82.77,56.15l24.38,23.47L839.18,449.5"/>
			<path class="st4" d="M863.56,472.97c0,0-29.95-2.18-56.61,28.97s-52.94,84.86-52.94,84.86l-24.38-23.47L839.18,449.5"/>
			<circle class="st5" cx="854.9" cy="433.17" r="48.95"/>
		</g>
		<g>
			<path class="st4" d="M939.76,736.98c0,0-25.48,13.54-60.99-3.48c-35.52-17.02-79.47-54.03-79.47-54.03l-12.32,30.09l140.46,57.51
				"/>
			<path class="st4" d="M915.13,797.16c0,0-8.67-27.52-45.92-40.29c-37.26-12.77-94.54-17.21-94.54-17.21l12.32-30.09l140.46,57.51"
				/>
			<circle class="st5" cx="947.6" cy="775.32" r="47.03"/>
		</g>
		<g>
			<path class="st3" d="M434.26,800.18c0,0,2.86-23.25,30.72-38.94s72.94-27.68,72.94-27.68l-14.27-22.21l-103.67,66.62"/>
			<path class="st3" d="M405.72,755.77c0,0,22.34,7.05,48.19-11.77c25.85-18.83,55.48-54.85,55.48-54.85l14.27,22.21l-103.67,66.62"
				/>
			<circle class="st4" cx="405.12" cy="787.54" r="38.18"/>
		</g>
		<g>
			<path class="st3" d="M510.11,938.21c0,0-10.61-27.74,11.27-61.88c21.88-34.13,65.25-74.35,65.25-74.35l-29.18-16.39
				l-76.53,136.23"/>
			<path class="st3" d="M451.75,905.43c0,0,29.21-5.37,46.98-41.82c17.76-36.45,29.55-94.41,29.55-94.41l29.18,16.39l-76.53,136.23"
				/>
			<circle class="st4" cx="469.95" cy="941.37" r="48.42"/>
		</g>
		<g>
			<path class="st3" d="M839.37,871.41c0,0-27.8-3.42-46.57-36.74c-18.76-33.32-33.1-87.23-33.1-87.23l-26.56,17.07l79.67,123.97"/>
			<path class="st3" d="M786.26,905.54c0,0,8.44-26.71-14.08-57.62c-22.51-30.91-65.6-66.35-65.6-66.35l26.56-17.07l79.67,123.97"/>
			<circle class="st4" cx="824.25" cy="906.26" r="45.66"/>
		</g>
		<g>
			<g>
				<g>
					<path class="st1" d="M751.17,840.56l-0.64-0.99c-3.46-5.38-10.44-7.27-16.21-4.36c-41.04,20.68-88.39,26.69-133.32,16.91
						c-44.81-9.75-83.85-33.66-112.91-69.15c-1.88-2.28-4.4-3.75-7.1-4.34c-3.12-0.68-6.5-0.16-9.37,1.68l-1.01,0.65
						c-3,1.94-5.06,5.07-5.62,8.62c-0.56,3.51,0.36,6.96,2.59,9.7c32.87,40.26,77.08,67.38,127.86,78.43
						c50.79,11.05,104.33,4.24,150.78-19.17c3.24-1.64,5.55-4.46,6.51-7.96C753.64,847.15,753.09,843.58,751.17,840.56z"/>
				</g>
				<g>
					<path class="st1" d="M662.08,442.37l-0.26,1.2c-1.28,5.86-6.53,9.99-12.49,9.83c-96.77-2.67-181.96,64.09-202.55,158.76
						c-7.88,36.23-5.63,73.82,6.5,108.73c1.94,5.6-0.1,11.71-4.91,14.81l-1.06,0.68c-3.25,2.07-7.2,2.54-10.84,1.31
						c-3.65-1.27-6.47-4.08-7.75-7.72c-13.87-39.6-16.47-82.26-7.53-123.38c23.29-107.07,119.61-182.5,229.04-179.41
						c0.78,0.02,1.54,0.12,2.28,0.28c2.83,0.61,5.37,2.2,7.19,4.52C662.01,434.95,662.88,438.71,662.08,442.37z"/>
				</g>
				<g>
					<path class="st1" d="M866.55,703.47c-8.77,40.3-28.29,77.43-56.45,107.39c-2.65,2.82-6.39,4.24-10.25,3.87
						c-3.86-0.35-7.3-2.44-9.39-5.69l-0.72-1.12c-3.07-4.77-2.43-11.04,1.54-15.28c24.77-26.43,41.96-59.2,49.68-94.73
						c10.2-46.89,3.27-96.02-19.53-138.34c-22.54-41.84-59.1-74.48-102.93-91.91c-5.68-2.25-8.85-8.25-7.54-14.25l0.26-1.2
						c0.78-3.59,3.08-6.63,6.32-8.36c2.67-1.42,5.7-1.83,8.6-1.2c0.66,0.14,1.32,0.34,1.97,0.61
						C832.14,484.58,890.36,594.01,866.55,703.47z"/>
				</g>
			</g>
		</g>
		<g>
			<path class="st3" d="M372.82,513.68c0,0,34.79-6.38,69.98,26.68s72.83,92.59,72.83,92.59l25.55-30.59L398.37,483.09"/>
			<path class="st3" d="M423.92,452.5c0,0-0.07,35.37,38.72,64.1c38.8,28.73,104.08,55.16,104.08,55.16l-25.55,30.59L398.37,483.09"
				/>
			<circle class="st4" cx="377.88" cy="465.98" r="57.65"/>
		</g>
		<g>
			<path class="st4" d="M683.8,919.09c0,0-23-17.35-22.58-56.68s15.38-94.72,15.38-94.72l-32.43,1.54l7.19,151.4"/>
			<path class="st4" d="M618.94,922.17c0,0,21.26-19.45,17.1-58.57s-24.3-92.84-24.3-92.84l32.43-1.54l7.19,151.4"/>
			<circle class="st5" cx="652.4" cy="942.35" r="46.97"/>
		</g>
		<g>
			<path class="st3" d="M904.56,556.26c0,0-11.25,29.93-53.25,41.82c-42,11.89-105.66,13.34-105.66,13.34l11.82,34.04l158.91-55.16"
				/>
			<path class="st3" d="M928.2,624.35c0,0-27.38-16.52-67.71,0.17s-91.2,54.99-91.2,54.99l-11.82-34.04l158.91-55.16"/>
			<circle class="st4" cx="939.18" cy="582.39" r="52.12"/>
		</g>
		<g>
			<circle class="st3" cx="643.57" cy="656.44" r="170.54"/>
			<g>
				<circle class="st0" cx="657.91" cy="653.95" r="16.02"/>
				<g>
					<circle class="st0" cx="683.63" cy="562.15" r="35.69"/>
					<circle class="st0" cx="563.55" cy="724.67" r="16.02"/>
					<circle class="st0" cx="557.06" cy="645.59" r="28.04"/>
					<circle class="st0" cx="704.13" cy="737.87" r="28.04"/>
					<circle class="st0" cx="529.56" cy="594.89" r="6.63"/>
					<circle class="st0" cx="635.42" cy="774.75" r="14.75"/>
					<circle class="st0" cx="751.94" cy="681.19" r="6.63"/>
					<circle class="st0" cx="706.64" cy="678.13" r="2.72"/>
					<circle class="st0" cx="506.34" cy="674.4" r="2.72"/>
					<circle class="st0" cx="648.67" cy="740.4" r="2.72"/>
					<circle class="st0" cx="758.07" cy="574.91" r="8.26"/>
					<circle class="st0" cx="625.55" cy="525.01" r="6.63"/>
					<circle class="st0" cx="631.98" cy="621.39" r="6.63"/>
					<circle class="st0" cx="613.3" cy="707.23" r="6.63"/>
					<circle class="st0" cx="574.44" cy="776.58" r="6.63"/>
					<circle class="st0" cx="740.43" cy="628.38" r="22.47"/>
					<circle class="st0" cx="575.33" cy="561.6" r="22.47"/>
				</g>
			</g>
		</g>
	</g>
</g>
</svg>
